HIERARCHY
ROOT Hips
{
    OFFSET 0.000000 0.000000 0.000000
    CHANNELS 6 Xposition Yposition Zposition Zrotation Xrotation Yrotation
    JOINT Spine
    {
        OFFSET -0.000000 8.505030 0.000000
        CHANNELS 3 Zrotation Xrotation Yrotation
        JOINT Spine1
        {
            OFFSET -0.000000 25.070629 0.000000
            CHANNELS 3 Zrotation Xrotation Yrotation
            JOINT Neck
            {
                OFFSET -0.000000 24.967667 2.269788
                CHANNELS 3 Zrotation Xrotation Yrotation
                JOINT Head
                {
                    OFFSET -0.000000 14.520781 -2.074397
                    CHANNELS 3 Zrotation Xrotation Yrotation
                    End Site
                    {
                        OFFSET -0.000000 25.929966 0.000000
                    }
                }
            }
            JOINT LeftShoulder
            {
                OFFSET 4.117346 22.983784 -0.389865
                CHANNELS 3 Zrotation Xrotation Yrotation
                JOINT LeftArm
                {
                    OFFSET 11.957758 0.000000 0.000000
                    CHANNELS 3 Zrotation Xrotation Yrotation
                    JOINT LeftForeArm
                    {
                        OFFSET 31.907600 0.000000 0.000000
                        CHANNELS 3 Zrotation Xrotation Yrotation
                        JOINT LeftHand
                        {
                            OFFSET 28.601147 0.000000 0.000000
                            CHANNELS 3 Zrotation Xrotation Yrotation
                            End Site
                            {
                                OFFSET 15.557981 0.000000 0.000000
                            }
                        }
                    }
                }
            }
            JOINT RightShoulder
            {
                OFFSET -4.061940 22.983784 -0.389865
                CHANNELS 3 Zrotation Xrotation Yrotation
                JOINT RightArm
                {
                    OFFSET -11.957758 0.000000 0.000000
                    CHANNELS 3 Zrotation Xrotation Yrotation
                    JOINT RightForeArm
                    {
                        OFFSET -31.907600 0.000000 0.000000
                        CHANNELS 3 Zrotation Xrotation Yrotation
                        JOINT RightHand
                        {
                            OFFSET -28.601147 0.000000 0.000000
                            CHANNELS 3 Zrotation Xrotation Yrotation
                            End Site
                            {
                                OFFSET -15.557981 0.000000 0.000000
                            }
                        }
                    }
                }
            }
        }
    }
    JOINT LeftUpLeg
    {
        OFFSET 10.371986 0.000000 0.000000
        CHANNELS 3 Zrotation Xrotation Yrotation
        JOINT LeftLeg
        {
            OFFSET -0.000000 -42.486427 0.000000
            CHANNELS 3 Zrotation Xrotation Yrotation
            JOINT LeftFoot
            {
                OFFSET -0.000000 -48.322342 0.000000
                CHANNELS 3 Zrotation Xrotation Yrotation
                JOINT LeftToeBase
                {
                    OFFSET -0.000000 -6.741791 15.557981
                    CHANNELS 3 Zrotation Xrotation Yrotation
                    End Site
                    {
                        OFFSET -0.000000 0.000000 4.148795
                    }
                }
            }
        }
    }
    JOINT RightUpLeg
    {
        OFFSET -10.371986 0.000000 0.000000
        CHANNELS 3 Zrotation Xrotation Yrotation
        JOINT RightLeg
        {
            OFFSET -0.000000 -42.486427 0.000000
            CHANNELS 3 Zrotation Xrotation Yrotation
            JOINT RightFoot
            {
                OFFSET -0.000000 -48.322342 0.000000
                CHANNELS 3 Zrotation Xrotation Yrotation
                JOINT RightToeBase
                {
                    OFFSET -0.000000 -6.741791 15.557981
                    CHANNELS 3 Zrotation Xrotation Yrotation
                    End Site
                    {
                        OFFSET -0.000000 0.000000 4.148795
                    }
                }
            }
        }
    }
}
MOTION
Frames:    9
Frame Time:    0.008333
-81.390106    98.821175    81.583611    -0.028714    -2.582966    93.116661    0.678467    -8.607959    0.660005    2.491398    -1.634475    0.644523    -0.203332    28.785442    -3.188296    1.300704    3.280295    -3.195007    10.364723    -0.029669    -12.538451    -16.605251    -5.494511    -5.126900    -2.592619    -1.549158    24.354002    -5.940600    -0.931917    -1.114399    -15.185439    3.002259    -9.659974    25.516903    -2.529246    19.702509    3.217794    2.584596    -17.454720    4.116139    2.833911    -6.796258    7.266228    2.938769    3.312740    -1.783141    4.993078    1.594797    -3.213097    -6.492916    6.580050    0.000000    0.000000    0.000000    2.501531    3.118094    1.630772    1.566810    4.364929    -0.276568    1.647025    -6.084177    -14.388269    0.000000    0.000000    0.000000    
-81.383659    98.819641    81.582260    -0.025445    -2.585058    93.130577    0.674665    -8.621188    0.652766    2.523507    -1.598181    0.637171    -0.208392    28.772236    -3.179289    1.242978    3.352287    -3.193615    10.346256    -0.047532    -12.530871    -16.626875    -5.447546    -5.121481    -2.602009    -1.554378    24.363800    -5.975608    -0.934769    -1.110155    -15.211742    2.981188    -9.677137    25.532860    -2.510649    19.708920    3.206153    2.584834    -17.418821    4.139164    2.829233    -6.816264    7.269362    2.938979    3.306227    -1.781036    5.004125    1.567566    -3.208767    -6.507629    6.590539    0.000000    0.000000    0.000000    2.507536    3.124339    1.632556    1.564029    4.365031    -0.289040    1.659349    -6.087554    -14.395863    0.000000    0.000000    0.000000    
-81.383751    98.815498    81.586578    -0.026595    -2.582113    93.154907    0.654087    -8.624516    0.634414    2.563132    -1.570492    0.620254    -0.221271    28.776020    -3.162301    1.197238    3.363503    -3.182849    10.332973    -0.057972    -12.492332    -16.648369    -5.419887    -5.149047    -2.622540    -1.542053    24.390884    -6.039215    -0.917268    -1.101468    -15.231042    2.956587    -9.688463    25.524588    -2.349092    19.712694    3.155014    2.517665    -17.370827    4.173439    2.751037    -6.811712    7.276045    2.922237    3.298886    -1.789909    5.019312    1.549715    -3.236253    -6.512851    6.599161    0.000000    0.000000    0.000000    2.515096    3.117342    1.613750    1.552136    4.375661    -0.336384    1.663130    -6.105112    -14.348742    0.000000    0.000000    0.000000    
-81.371780    98.817154    81.576797    -0.029202    -2.578783    93.146149    0.681186    -8.660297    0.644727    2.544484    -1.511845    0.626723    -0.238247    28.660053    -3.160081    1.191783    3.585618    -3.185298    10.347209    -0.078835    -12.483013    -16.681784    -5.393734    -5.157658    -2.696779    -1.481549    24.409464    -6.020739    -0.843542    -1.042256    -15.245937    2.939350    -9.699871    25.562510    -2.438235    19.706926    3.170890    2.566467    -17.348640    4.166908    2.804616    -6.739705    7.263289    2.934647    3.304714    -1.784153    5.007930    1.585667    -3.217082    -6.504797    6.557857    0.000000    0.000000    0.000000    2.499462    3.121564    1.639013    1.562558    4.378060    -0.306489    1.650642    -6.102694    -14.392697    0.000000    0.000000    0.000000    
-81.368607    98.815323    81.572899    -0.028766    -2.572941    93.162354    0.681151    -8.663823    0.634265    2.551701    -1.493824    0.615922    -0.271098    28.676416    -3.139473    1.211186    3.585592    -3.165715    10.340788    -0.076844    -12.475880    -16.698721    -5.383099    -5.148746    -2.720511    -1.474225    24.424253    -6.044253    -0.830862    -1.033458    -15.235029    2.938284    -9.693061    25.550251    -2.405471    19.700621    3.070798    2.470888    -17.326942    4.335629    2.689065    -6.587198    7.255068    2.929225    3.293078    -1.779592    5.016974    1.572274    -3.225489    -6.514394    6.565846    0.000000    0.000000    0.000000    2.493207    3.119210    1.607389    1.563039    4.384813    -0.357109    1.669794    -6.114683    -14.334579    0.000000    0.000000    0.000000    
-81.363197    98.815453    81.569145    -0.028721    -2.572086    93.167686    0.712673    -8.720081    0.641431    2.474705    -1.331927    0.615824    -0.133839    28.470655    -3.166189    1.110414    3.703732    -3.188918    10.523803    -0.156595    -12.377208    -16.848616    -5.390273    -5.250553    -2.745883    -1.472387    24.457575    -6.037130    -0.822928    -1.031957    -15.245984    2.851796    -9.741657    25.611341    -2.327042    19.675829    3.049215    2.445470    -17.255112    4.327485    2.658595    -6.595659    7.252371    2.932054    3.292695    -1.782749    5.009486    1.606240    -3.216840    -6.507895    6.530495    0.000000    0.000000    0.000000    2.490796    3.122937    1.631761    1.563990    4.384778    -0.369659    1.681514    -6.114415    -14.351574    0.000000    0.000000    0.000000    
-81.361542    98.813667    81.565163    -0.034674    -2.565510    93.180382    0.715994    -8.732489    0.632780    2.480447    -1.300583    0.606254    -0.144229    28.432446    -3.165211    1.081590    3.746826    -3.192673    10.507465    -0.183957    -12.363453    -16.862698    -5.342424    -5.239709    -2.756914    -1.485119    24.476311    -6.054361    -0.833601    -1.013427    -15.263972    2.858049    -9.755951    25.643887    -2.341668    19.694639    3.034747    2.442281    -17.225368    4.316649    2.653127    -6.592971    7.245166    2.917554    3.300209    -1.782814    5.025609    1.593270    -3.212199    -6.507737    6.527112    0.000000    0.000000    0.000000    2.483845    3.116735    1.609007    1.563945    4.394051    -0.315658    1.629323    -6.122238    -14.394992    0.000000    0.000000    0.000000    
-81.357643    98.814194    81.561661    -0.034247    -2.561582    93.202164    0.712286    -8.736230    0.623655    2.493279    -1.279799    0.597125    -0.160781    28.431580    -3.159078    1.092408    3.720498    -3.186836    10.494511    -0.172929    -12.350442    -16.869915    -5.382280    -5.255775    -2.735065    -1.517663    24.522041    -6.055711    -0.866209    -1.080557    -15.279865    2.842241    -9.746202    25.666880    -2.321906    19.659857    3.018686    2.434876    -17.189648    4.311042    2.643674    -6.566078    7.236267    2.916359    3.297684    -1.774365    5.019946    1.625410    -3.227788    -6.501417    6.472687    0.000000    0.000000    0.000000    2.477665    3.116914    1.593763    1.564932    4.401997    -0.306756    1.627096    -6.130835    -14.409623    0.000000    0.000000    0.000000    
-81.356628    98.812737    81.559647    -0.041109    -2.564835    93.213814    0.727554    -8.741574    0.616630    2.488331    -1.267946    0.588632    -0.146715    28.453876    -3.158091    1.065642    3.653897    -3.186498    10.486430    -0.162121    -12.351138    -16.881561    -5.371481    -5.241851    -2.750663    -1.524040    24.544697    -6.024043    -0.869732    -1.065531    -15.270394    2.844980    -9.743794    25.686951    -2.358712    19.639528    3.005009    2.454489    -17.134514    4.303378    2.659716    -6.577998    7.239319    2.902943    3.302520    -1.775588    5.032818    1.581212    -3.205899    -6.511380    6.507173    0.000000    0.000000    0.000000    2.479486    3.108699    1.613399    1.570040    4.406559    -0.340683    1.628734    -6.133773    -14.403001    0.000000    0.000000    0.000000    
